<svg xmlns="http://www.w3.org/2000/svg" viewBox="0 0 102.02 64.48"><defs><style>.cls-1{fill:none;stroke:#81353e;stroke-miterlimit:10;stroke-width:3.12px;}.cls-2{fill:#81353e;}</style></defs><title>アセット 1</title><g id="レイヤー_2" data-name="レイヤー 2"><g id="レイヤー_1-2" data-name="レイヤー 1"><path class="cls-1" d="M70.33,58.86a24.47,24.47,0,0,1,3-.34,14.73,14.73,0,0,1-6.46,1Zm-5.18-.79A13.23,13.23,0,0,1,68.25,51,20.66,20.66,0,0,1,67,54.41Z"/><path class="cls-1" d="M80.66,45.34a13.11,13.11,0,0,1-.79-7.7,21.14,21.14,0,0,1,.56,3.63Zm4.89-1.86A23.84,23.84,0,0,1,88,41.68a15.09,15.09,0,0,1-5.21,4.09Z"/><path class="cls-1" d="M92.52,27.83A16.21,16.21,0,0,1,94.38,26a10.16,10.16,0,0,1-3.53,3.81Zm-5.19-.57a14.87,14.87,0,0,1-.86-2.17,17.26,17.26,0,0,1,.71,1.74Z"/><path class="cls-1" d="M96.68,12.9a15.76,15.76,0,0,1,1.42-2.21,10.11,10.11,0,0,1-2.61,4.48Zm-5.12.66a12.86,12.86,0,0,1-1.33-2,17.45,17.45,0,0,1,1,1.49Z"/><path class="cls-1" d="M35.18,59.51a14.74,14.74,0,0,1-6.46-1,24,24,0,0,1,3,.34Zm-.12-5.1A20.66,20.66,0,0,1,33.77,51a13.23,13.23,0,0,1,3.1,7.09Z"/><path class="cls-1" d="M21.59,41.27a20.27,20.27,0,0,1,.57-3.63,13.17,13.17,0,0,1-.8,7.7Zm-2.39,4.5A15,15,0,0,1,14,41.68a23.84,23.84,0,0,1,2.49,1.8Z"/><path class="cls-1" d="M11.17,29.8A10.16,10.16,0,0,1,7.64,26,15.44,15.44,0,0,1,9.5,27.83Zm3.67-3a17.26,17.26,0,0,1,.71-1.74,14.87,14.87,0,0,1-.86,2.17Z"/><path class="cls-1" d="M6.53,15.17a10.11,10.11,0,0,1-2.61-4.48A15.76,15.76,0,0,1,5.34,12.9Zm4.23-2.08a17.45,17.45,0,0,1,1-1.49,13.62,13.62,0,0,1-1.32,2Z"/><path class="cls-2" d="M43.1,17.29c2.79-1.05,6.13-2.1,7.91-2.1,8.69,0,13.22,5.72,13.22,11.25,0,4.07-2,7.78-6.22,11.21-3.71,2.83-8.33,4.62-12,4.62a11.73,11.73,0,0,1-7-2.33c-1-1-1.37-1.51-1.24-2.38a3.83,3.83,0,0,1,1.56-2.47,1.35,1.35,0,0,1,1.87.09,13,13,0,0,0,8.65,3.66c5.54,0,8.19-4.76,8.19-9.61,0-5.95-3.71-10.06-11-10.06a23.72,23.72,0,0,0-7.14,1.32L42.64,0h19.9L63,.5,61.07,5.31H44.88Z"/><path class="cls-2" d="M43.1,17.29c2.79-1.05,6.13-2.1,7.91-2.1,8.69,0,13.22,5.72,13.22,11.25,0,4.07-2,7.78-6.22,11.21-3.71,2.83-8.33,4.62-12,4.62a11.73,11.73,0,0,1-7-2.33c-1-1-1.37-1.51-1.24-2.38a3.83,3.83,0,0,1,1.56-2.47,1.35,1.35,0,0,1,1.87.09,13,13,0,0,0,8.65,3.66c5.54,0,8.19-4.76,8.19-9.61,0-5.95-3.71-10.06-11-10.06a23.72,23.72,0,0,0-7.14,1.32L42.64,0h19.9L63,.5,61.07,5.31H44.88Z"/></g></g></svg>