<svg xmlns="http://www.w3.org/2000/svg" viewBox="0 0 102.02 65.31"><defs><style>.cls-1{fill:none;stroke:#81353e;stroke-miterlimit:10;stroke-width:3.12px;}.cls-2{fill:#81353e;}</style></defs><title>アセット 3</title><g id="レイヤー_2" data-name="レイヤー 2"><g id="レイヤー_1-2" data-name="レイヤー 1"><path class="cls-1" d="M70.33,59.69a24.42,24.42,0,0,1,3-.35,14.61,14.61,0,0,1-6.46,1Zm-5.18-.8a13.23,13.23,0,0,1,3.1-7.09A21.13,21.13,0,0,1,67,55.24Z"/><path class="cls-1" d="M80.66,46.16a13.09,13.09,0,0,1-.79-7.69,21,21,0,0,1,.56,3.62Zm4.89-1.85A23.88,23.88,0,0,1,88,42.5a15.27,15.27,0,0,1-5.21,4.1Z"/><path class="cls-1" d="M92.52,28.66a16.27,16.27,0,0,1,1.86-1.85,10,10,0,0,1-3.53,3.81Zm-5.19-.58a14.72,14.72,0,0,1-.86-2.16,18.13,18.13,0,0,1,.71,1.73Z"/><path class="cls-1" d="M96.68,13.72a16.37,16.37,0,0,1,1.42-2.21A10.1,10.1,0,0,1,95.49,16Zm-5.12.67a13,13,0,0,1-1.33-2c.39.51.73,1,1,1.49Z"/><path class="cls-1" d="M35.18,60.34a14.63,14.63,0,0,1-6.46-1,24,24,0,0,1,3,.35Zm-.12-5.1a21.13,21.13,0,0,1-1.29-3.44,13.23,13.23,0,0,1,3.1,7.09Z"/><path class="cls-1" d="M21.59,42.09a20.17,20.17,0,0,1,.57-3.62,13.15,13.15,0,0,1-.8,7.69ZM19.2,46.6A15.19,15.19,0,0,1,14,42.5a23.88,23.88,0,0,1,2.49,1.81Z"/><path class="cls-1" d="M11.17,30.62a10,10,0,0,1-3.53-3.81A15.49,15.49,0,0,1,9.5,28.66Zm3.67-3a18.13,18.13,0,0,1,.71-1.73,14.72,14.72,0,0,1-.86,2.16Z"/><path class="cls-1" d="M6.53,16a10.1,10.1,0,0,1-2.61-4.49,16.37,16.37,0,0,1,1.42,2.21Zm4.23-2.09c.3-.48.64-1,1-1.49a13.75,13.75,0,0,1-1.32,2Z"/><path class="cls-2" d="M54.35,17.2c6.08,1.05,9.52,5.26,9.47,10.2,0,11.07-13.54,15.69-18,15.69a11.58,11.58,0,0,1-7.09-2.33,2.66,2.66,0,0,1-1.14-2.52,3.94,3.94,0,0,1,1.69-2.33,1.27,1.27,0,0,1,1.74,0,13.21,13.21,0,0,0,8.6,3.66c4.57,0,7.87-3.43,7.87-10C57.51,23.47,52.75,21,49,21a15.86,15.86,0,0,0-4.25.69l-.41-2c6.08-1.93,10.61-4.44,10.61-9.24,0-4.17-2.88-6.23-6.41-6.23C44.74,4.25,42,7,40.31,9.61L38.84,8.19l3.07-4.3A11.82,11.82,0,0,1,50.69,0h.05C57,0,61,3.8,61,8.87a6.29,6.29,0,0,1-2,4.67,45.58,45.58,0,0,1-4.67,3.52Z"/><path class="cls-2" d="M54.35,17.2c6.08,1.05,9.52,5.26,9.47,10.2,0,11.07-13.54,15.69-18,15.69a11.58,11.58,0,0,1-7.09-2.33,2.66,2.66,0,0,1-1.14-2.52,3.94,3.94,0,0,1,1.69-2.33,1.27,1.27,0,0,1,1.74,0,13.21,13.21,0,0,0,8.6,3.66c4.57,0,7.87-3.43,7.87-10C57.51,23.47,52.75,21,49,21a15.86,15.86,0,0,0-4.25.69l-.41-2c6.08-1.93,10.61-4.44,10.61-9.24,0-4.17-2.88-6.23-6.41-6.23C44.74,4.25,42,7,40.31,9.61L38.84,8.19l3.07-4.3A11.82,11.82,0,0,1,50.69,0h.05C57,0,61,3.8,61,8.87a6.29,6.29,0,0,1-2,4.67,45.58,45.58,0,0,1-4.67,3.52Z"/></g></g></svg>