<svg xmlns="http://www.w3.org/2000/svg" viewBox="0 0 102.02 65.31"><defs><style>.cls-1{fill:none;stroke:#81353e;stroke-miterlimit:10;stroke-width:3.12px;}.cls-2{fill:#81353e;}</style></defs><title>アセット 4</title><g id="レイヤー_2" data-name="レイヤー 2"><g id="レイヤー_1-2" data-name="レイヤー 1"><path class="cls-1" d="M70.33,59.69a22.59,22.59,0,0,1,3-.35,14.58,14.58,0,0,1-6.46,1Zm-5.18-.8a13.23,13.23,0,0,1,3.1-7.09A20.66,20.66,0,0,1,67,55.23Z"/><path class="cls-1" d="M80.66,46.16a13.09,13.09,0,0,1-.79-7.69,21,21,0,0,1,.56,3.62Zm4.89-1.85A23.88,23.88,0,0,1,88,42.5a15.27,15.27,0,0,1-5.21,4.1Z"/><path class="cls-1" d="M92.52,28.66a15.49,15.49,0,0,1,1.86-1.85,10.08,10.08,0,0,1-3.53,3.81Zm-5.19-.58a15.18,15.18,0,0,1-.86-2.16,18.13,18.13,0,0,1,.71,1.73Z"/><path class="cls-1" d="M96.68,13.72a16.37,16.37,0,0,1,1.42-2.21A10.16,10.16,0,0,1,95.49,16Zm-5.12.67a13.51,13.51,0,0,1-1.33-2c.39.51.73,1,1,1.49Z"/><path class="cls-1" d="M35.18,60.33a14.6,14.6,0,0,1-6.46-1,22.19,22.19,0,0,1,3,.35Zm-.12-5.1a20.66,20.66,0,0,1-1.29-3.43,13.23,13.23,0,0,1,3.1,7.09Z"/><path class="cls-1" d="M21.59,42.09a20.17,20.17,0,0,1,.57-3.62,13.15,13.15,0,0,1-.8,7.69ZM19.2,46.6A15.19,15.19,0,0,1,14,42.5a23.88,23.88,0,0,1,2.49,1.81Z"/><path class="cls-1" d="M11.17,30.62a10.08,10.08,0,0,1-3.53-3.81A14.79,14.79,0,0,1,9.5,28.66Zm3.67-3a18.13,18.13,0,0,1,.71-1.73,15.18,15.18,0,0,1-.86,2.16Z"/><path class="cls-1" d="M6.53,16a10.16,10.16,0,0,1-2.61-4.49,16.37,16.37,0,0,1,1.42,2.21Zm4.23-2.09c.3-.48.64-1,1-1.49a14.34,14.34,0,0,1-1.32,2Z"/><path class="cls-2" d="M65,33.07c-1,3.07-1.69,6.22-2.47,9.24H36.69v-1.6c3.75-3.66,7.69-7.41,11-11.25,4.21-4.85,8.42-10.25,8.42-15.92,0-5.49-2.93-8.74-7.87-8.74-4.67,0-7.55,3.62-9.38,6.32l-1.6-1.47L41.31,4A13,13,0,0,1,50.6,0c6.22,0,11.66,4.35,11.66,11.39,0,5.72-2.51,9.52-9,16.15L43.83,37h12.4C60,37,60.8,36.78,63,32.43Z"/><path class="cls-2" d="M65,33.07c-1,3.07-1.69,6.22-2.47,9.24H36.69v-1.6c3.75-3.66,7.69-7.41,11-11.25,4.21-4.85,8.42-10.25,8.42-15.92,0-5.49-2.93-8.74-7.87-8.74-4.67,0-7.55,3.62-9.38,6.32l-1.6-1.47L41.31,4A13,13,0,0,1,50.6,0c6.22,0,11.66,4.35,11.66,11.39,0,5.72-2.51,9.52-9,16.15L43.83,37h12.4C60,37,60.8,36.78,63,32.43Z"/></g></g></svg>