<svg viewBox="0 0 196.6 155" xmlns="http://www.w3.org/2000/svg" xmlns:xlink="http://www.w3.org/1999/xlink"><clipPath id="a"><path d="m22.6-2h23v61h-23z" transform="matrix(.51503807 -.8571673 .8571673 .51503807 -7.89 43.05)"/></clipPath><path d="m116.12 145.57c-3.17 10.38-17.87 10.38-21 0l-40.18-131.36a11 11 0 0 1 10.52-14.21h80.28a11 11 0 0 1 11 11 11.24 11.24 0 0 1 -.48 3.21z" fill="#6c5e5b"/><circle cx="26.6" cy="42" fill="#a29997" r="25"/><path d="m52.81 141.11-15.6-57.2c-3-10.81-18.28-10.81-21.22 0l-15.6 57.2a10.83 10.83 0 0 0 -.39 2.89 11 11 0 0 0 11 11h31.2a10.83 10.83 0 0 0 2.89-.39 11 11 0 0 0 7.72-13.5zm-26.21-36.11a5 5 0 1 1 5-5 5 5 0 0 1 -5 5z" fill="#6c5e5b"/><path d="m169.1 95a27.5 27.5 0 1 0 27.5 27.5 27.5 27.5 0 0 0 -27.5-27.5zm.5 20a5 5 0 1 1 5-5 5 5 0 0 1 -5 5z" fill="#6c5e5b"/><g clip-path="url(#a)"><circle cx="26.54" cy="42.04" fill="#6c5e5b" r="25"/></g></svg>